<?xml version="1.0" encoding="UTF-8" standalone="no" ?>
<!DOCTYPE svg PUBLIC "-//W3C//DTD SVG 1.1//EN" "http://www.w3.org/Graphics/SVG/1.1/DTD/svg11.dtd">
<svg xmlns="http://www.w3.org/2000/svg" xmlns:xlink="http://www.w3.org/1999/xlink" version="1.1" width="1280" height="1024" viewBox="0 0 1280 1024" xml:space="preserve">
<desc>Created with Fabric.js 5.3.0</desc>
<defs>
</defs>
<g transform="matrix(1.9211538461538462 0 0 1.9211538461538462 640 404.33758252567685)" id="logo-logo"  >
<g style=""  paint-order="stroke"   >
		<g transform="matrix(1.0005280028534786 0 0 -1.0005280028534786 0 20.454194173534802)"  >
<path style="stroke: none; stroke-width: 1; stroke-dasharray: none; stroke-linecap: butt; stroke-dashoffset: 0; stroke-linejoin: miter; stroke-miterlimit: 4; fill: rgb(161,226,235); fill-rule: nonzero; opacity: 1;"  paint-order="stroke"  transform=" translate(120.7735983084329, -5.525999999999982)" d="M 0 0 C -2.535 -11.777 -27.063 -17.319 -61.939 -15.993 L -61.968 -15.993 C -58.629000000000005 -11.865 -55.367000000000004 -7.470000000000001 -52.229 -2.8339999999999996 C -52.224 -2.8219999999999996 -52.216 -2.8089999999999997 -52.207 -2.7969999999999997 C -51.787 -2.175 -51.358000000000004 -1.5639999999999996 -50.943 -0.9319999999999997 C -36.055 4.747000000000001 -21.991999999999997 11.37 -10.961999999999996 18.770000000000003 C -2.83 12.135 1.218 5.678 0 0 M -179.607 -15.993 C -214.484 -17.319 -239.012 -11.777000000000001 -241.547 0 C -242.765 5.678 -238.716 12.135 -230.585 18.77 C -219.555 11.37 -205.494 4.747 -190.604 -0.9320000000000022 C -190.187 -1.5640000000000023 -189.762 -2.1750000000000025 -189.34 -2.7970000000000024 C -189.333 -2.8090000000000024 -189.326 -2.8220000000000023 -189.317 -2.8340000000000023 L -189.316 -2.8340000000000023 C -186.18 -7.470000000000002 -182.916 -11.865000000000002 -179.579 -15.993000000000002 z M -1.553 25.958 C 8.242 34.619 13.533999999999999 44.161 11.34 54.376 C 8.605 67.096 -4.265000000000001 74.094 -21.895999999999997 77.365 C -20.010999999999996 74.11699999999999 -18.596999999999998 69.89999999999999 -19.011999999999997 64.86099999999999 C -8.134999999999996 62.16899999999999 -1.2739999999999974 57.84799999999999 -0.002999999999996561 51.93999999999999 C 1.2180000000000035 46.26199999999999 -2.8589999999999964 39.80199999999999 -10.983999999999996 33.16599999999999 C -13.905999999999997 30.78199999999999 -17.347999999999995 28.37699999999999 -21.269 25.97599999999999 C -27.012 22.457999999999988 -33.732 18.950999999999986 -41.339 15.540999999999988 C -41.355 15.532999999999989 -41.375 15.523999999999988 -41.393 15.518999999999988 C -52.993 10.322999999999988 -66.59 5.365999999999987 -81.536 0.936999999999987 C -91.672 -2.070000000000013 -102.406 -4.838000000000013 -113.63 -7.252000000000013 C -116.026 -7.7690000000000135 -118.402 -8.242000000000013 -120.773 -8.714000000000013 C -123.14399999999999 -8.242000000000013 -125.51899999999999 -7.769000000000013 -127.917 -7.252000000000013 C -139.139 -4.838000000000013 -149.876 -2.0700000000000127 -160.011 0.936999999999987 C -174.957 5.365999999999987 -188.554 10.322999999999986 -200.153 15.518999999999988 C -200.171 15.523999999999988 -200.191 15.532999999999987 -200.208 15.540999999999988 C -207.814 18.950999999999986 -214.535 22.457999999999988 -220.277 25.97599999999999 C -224.19899999999998 28.37699999999999 -227.642 30.78199999999999 -230.56099999999998 33.16599999999999 C -238.688 39.80199999999999 -242.76399999999998 46.261999999999986 -241.54399999999998 51.93999999999999 C -240.272 57.84799999999999 -233.41299999999998 62.16899999999999 -222.53599999999997 64.86099999999999 C -222.94999999999996 69.89999999999999 -221.53599999999997 74.11699999999999 -219.65099999999998 77.365 C -237.28199999999998 74.094 -250.152 67.09599999999999 -252.88699999999997 54.37599999999999 C -255.08299999999997 44.16099999999999 -249.78899999999996 34.618999999999986 -239.99399999999997 25.95799999999999 C -249.78099999999998 17.304999999999993 -255.08299999999997 7.77099999999999 -252.88699999999997 -2.439000000000007 C -247.92399999999998 -25.519000000000005 -209.59499999999997 -29.809000000000008 -169.95899999999997 -27.050000000000008 C -169.70399999999998 -27.32100000000001 -169.45 -27.57100000000001 -169.194 -27.84200000000001 C -168.165 -28.93200000000001 -167.13799999999998 -30.00200000000001 -166.10899999999998 -31.04400000000001 C -165.85699999999997 -31.30000000000001 -165.60299999999998 -31.56600000000001 -165.35 -31.82200000000001 C -164.097 -33.08000000000001 -162.85 -34.29500000000001 -161.608 -35.48400000000001 C -161.255 -35.82200000000001 -160.90200000000002 -36.15700000000001 -160.549 -36.48900000000001 C -159.286 -37.68500000000001 -158.026 -38.85700000000001 -156.78300000000002 -39.97900000000001 C -156.77400000000003 -39.987000000000016 -156.76600000000002 -39.996000000000016 -156.757 -40.00500000000002 C -155.463 -41.171000000000014 -154.187 -42.28700000000002 -152.922 -43.378000000000014 C -152.659 -43.60200000000001 -152.396 -43.829000000000015 -152.135 -44.054000000000016 C -150.87199999999999 -45.12900000000002 -149.623 -46.180000000000014 -148.39999999999998 -47.179000000000016 C -148.38799999999998 -47.18800000000002 -148.37599999999998 -47.19600000000002 -148.36299999999997 -47.20800000000002 C -147.11799999999997 -48.22400000000002 -145.90199999999996 -49.19200000000002 -144.70499999999998 -50.12600000000002 C -144.54 -50.25700000000002 -144.374 -50.38800000000002 -144.20899999999997 -50.51500000000002 C -143.00099999999998 -51.45500000000002 -141.81699999999998 -52.36000000000002 -140.67199999999997 -53.215000000000025 C -140.64999999999998 -53.23200000000003 -140.63099999999997 -53.24600000000002 -140.60899999999998 -53.261000000000024 C -139.45499999999998 -54.124000000000024 -138.337 -54.938000000000024 -137.25499999999997 -55.71400000000003 C -137.17499999999995 -55.77100000000003 -137.09599999999998 -55.82700000000003 -137.01799999999997 -55.88400000000003 C -135.91599999999997 -56.67100000000003 -134.85299999999998 -57.41700000000003 -133.83799999999997 -58.11300000000003 C -133.82199999999997 -58.12400000000003 -133.80699999999996 -58.13600000000003 -133.78999999999996 -58.14700000000003 C -131.71399999999997 -59.572000000000024 -129.82899999999995 -60.810000000000024 -128.17799999999997 -61.86000000000003 C -128.16099999999997 -61.87200000000003 -128.14399999999998 -61.88400000000003 -128.12499999999997 -61.895000000000024 C -126.23999999999997 -63.093000000000025 -124.68199999999997 -64.03200000000002 -123.47699999999998 -64.74200000000002 C -122.03799999999998 -65.58600000000001 -121.10999999999997 -66.09400000000002 -120.84499999999997 -66.23500000000001 L -120.84499999999997 -66.31300000000002 L -120.84199999999997 -66.31000000000002 L -120.84199999999997 -66.31300000000002 C -120.84199999999997 -66.31300000000002 -120.79499999999997 -66.28400000000002 -120.77299999999997 -66.27500000000002 C -120.75199999999997 -66.28400000000002 -120.70499999999997 -66.31300000000002 -120.70499999999997 -66.31300000000002 L -120.70499999999997 -66.31000000000002 L -120.70299999999997 -66.31300000000002 L -120.70299999999997 -66.23500000000001 C -120.43999999999997 -66.09700000000001 -119.53099999999998 -65.59700000000001 -118.12199999999997 -64.77100000000002 C -116.90599999999998 -64.05800000000002 -115.32799999999997 -63.10700000000001 -113.41099999999997 -61.88900000000002 C -113.39999999999998 -61.881000000000014 -113.38599999999997 -61.872000000000014 -113.37499999999997 -61.863000000000014 C -111.72299999999997 -60.81300000000002 -109.83699999999997 -59.57500000000002 -107.75899999999997 -58.14700000000001 C -107.74099999999997 -58.13600000000001 -107.72499999999997 -58.12400000000001 -107.70699999999997 -58.113000000000014 C -106.69399999999996 -57.417000000000016 -105.62899999999996 -56.671000000000014 -104.52999999999996 -55.884000000000015 C -104.45099999999996 -55.82700000000001 -104.37099999999995 -55.771000000000015 -104.29199999999996 -55.71400000000001 C -103.20999999999997 -54.93800000000001 -102.09199999999996 -54.12400000000001 -100.93599999999996 -53.26100000000001 C -100.91599999999997 -53.24600000000001 -100.89599999999996 -53.232000000000006 -100.87699999999997 -53.21500000000001 C -99.72899999999997 -52.360000000000014 -98.54499999999997 -51.45500000000001 -97.33599999999997 -50.51500000000001 C -97.17399999999996 -50.388000000000005 -97.00699999999998 -50.257000000000005 -96.84199999999997 -50.126000000000005 C -95.64599999999997 -49.19200000000001 -94.42899999999997 -48.224000000000004 -93.18299999999996 -47.208000000000006 C -93.17099999999996 -47.196000000000005 -93.15899999999996 -47.188 -93.14799999999997 -47.179 C -91.92499999999997 -46.18 -90.67499999999997 -45.129000000000005 -89.41199999999996 -44.054 C -89.14999999999996 -43.829 -88.88999999999996 -43.602000000000004 -88.62499999999996 -43.378 C -87.36099999999996 -42.287 -86.08399999999996 -41.171 -84.78899999999996 -40.005 C -84.78099999999996 -39.996 -84.77199999999996 -39.987 -84.76399999999995 -39.979 C -83.52099999999996 -38.857 -82.25999999999995 -37.685 -80.99599999999995 -36.489 C -80.64499999999995 -36.157 -80.29199999999996 -35.821999999999996 -79.93999999999996 -35.483999999999995 C -78.69599999999996 -34.294999999999995 -77.44999999999996 -33.08 -76.19799999999995 -31.821999999999996 C -75.94499999999995 -31.568999999999996 -75.69199999999995 -31.302999999999997 -75.43999999999996 -31.046999999999997 C -74.41199999999995 -30.001999999999995 -73.37899999999996 -28.929 -72.34899999999996 -27.839 C -72.09299999999996 -27.569 -71.83999999999996 -27.320999999999998 -71.58699999999996 -27.049999999999997 C -31.951999999999963 -29.808999999999997 6.377000000000038 -25.519 11.340000000000046 -2.4389999999999965 C 13.537000000000045 7.771000000000004 8.233000000000047 17.305000000000003 -1.5529999999999546 25.958000000000002" stroke-linecap="round" />
</g>
		<g transform="matrix(1.0005280028534786 0 0 -1.0005280028534786 0.00019841314025370593 -34.257478500901414)"  >
<path style="stroke: none; stroke-width: 1; stroke-dasharray: none; stroke-linecap: butt; stroke-dashoffset: 0; stroke-linejoin: miter; stroke-miterlimit: 4; fill: rgb(54,196,212); fill-rule: nonzero; opacity: 1;"  paint-order="stroke"  transform=" translate(-87.08399999999999, -27.408000000000005)" d="M 0 0 C 1.664 -4.443 3.561 -8.664 5.542 -12.793 C 6.316 -13.151 7.06 -13.511999999999999 7.853999999999999 -13.866 C 7.8709999999999996 -13.875 7.890999999999999 -13.884 7.908999999999999 -13.889999999999999 C 19.508 -19.085 33.105000000000004 -24.041999999999998 48.051 -28.472 C 50.534 -29.207 53.055 -29.931 55.608000000000004 -30.635 C 65.208 -29.062 75.848 -27.1 87.084 -24.67 C 115.575 -18.503 147.732 -9.347000000000001 175.587 4.056999999999999 C 178.74099999999999 13.216999999999999 181.2 22.971999999999998 182.65699999999998 33.369 C 183.009 35.868 183.31799999999998 38.394999999999996 183.55399999999997 40.967 C 183.55399999999997 40.967 182.41199999999998 42.335 179.86899999999997 44.635 C 179.80099999999996 44.696999999999996 179.71899999999997 44.766999999999996 179.64699999999996 44.83 C 179.34999999999997 45.099 179.04299999999995 45.372 178.70499999999996 45.664 C 178.67599999999996 45.690000000000005 178.64299999999994 45.718 178.61299999999994 45.744 C 178.08899999999994 46.196 177.50099999999995 46.688 176.88499999999993 47.193 C 176.69999999999993 47.345 176.50999999999993 47.498 176.31599999999995 47.653999999999996 C 175.65199999999996 48.19199999999999 174.95099999999994 48.748 174.18499999999995 49.333999999999996 C 174.07399999999996 49.416999999999994 173.95199999999994 49.50899999999999 173.83799999999994 49.593999999999994 C 173.13999999999993 50.123 172.39099999999993 50.67399999999999 171.60899999999992 51.236 C 171.32499999999993 51.44 171.03599999999992 51.645999999999994 170.73999999999992 51.855 C 169.8859999999999 52.459999999999994 168.99199999999993 53.08 168.03799999999993 53.717999999999996 C 167.82499999999993 53.858999999999995 167.60399999999993 54.004 167.38799999999992 54.147 C 166.48999999999992 54.741 165.54199999999992 55.349 164.55999999999992 55.964999999999996 C 164.17999999999992 56.202999999999996 163.79299999999992 56.443 163.3979999999999 56.684999999999995 C 162.32199999999992 57.346 161.2069999999999 58.017999999999994 160.0339999999999 58.699 C 159.7419999999999 58.869 159.4369999999999 59.041 159.1399999999999 59.211 C 158.0099999999999 59.859 156.8259999999999 60.515 155.6049999999999 61.176 C 155.1339999999999 61.432 154.6539999999999 61.688 154.1679999999999 61.945 C 152.8249999999999 62.658 151.4419999999999 63.374 149.9949999999999 64.096 C 149.67099999999988 64.257 149.3419999999999 64.417 149.01599999999988 64.578 C 147.6019999999999 65.273 146.12799999999987 65.97200000000001 144.61099999999988 66.67 C 144.06099999999986 66.926 143.50199999999987 67.183 142.93399999999988 67.438 C 141.27799999999988 68.185 139.57999999999987 68.933 137.80899999999988 69.681 C 137.4999999999999 69.81 137.18699999999987 69.939 136.8749999999999 70.068 C 135.1319999999999 70.795 133.3169999999999 71.518 131.4609999999999 72.239 C 130.83899999999988 72.482 130.2079999999999 72.723 129.5719999999999 72.964 C 127.55699999999989 73.727 125.49799999999989 74.486 123.35199999999989 75.239 C 123.10399999999989 75.325 122.85199999999989 75.41000000000001 122.60499999999989 75.497 C 120.4809999999999 76.232 118.27799999999989 76.959 116.0259999999999 77.678 C 115.33999999999989 77.89699999999999 114.6449999999999 78.116 113.9449999999999 78.333 C 111.5489999999999 79.079 109.1039999999999 79.817 106.5609999999999 80.53999999999999 C 106.38199999999989 80.589 106.20299999999989 80.639 106.02099999999989 80.69 C 103.49399999999989 81.401 100.87099999999988 82.095 98.19299999999988 82.779 C 97.44099999999989 82.97099999999999 96.68399999999988 83.161 95.91999999999989 83.35 C 93.11399999999989 84.04599999999999 90.25599999999989 84.72999999999999 87.28799999999988 85.389 C 87.24199999999988 85.398 87.19899999999988 85.41 87.15199999999989 85.42 L 87.15199999999989 85.45100000000001 C 87.13099999999989 85.44300000000001 87.10799999999989 85.44300000000001 87.08999999999989 85.43700000000001 C 87.08699999999989 85.43700000000001 87.08699999999989 85.43700000000001 87.08399999999989 85.43800000000002 C 87.08099999999989 85.43700000000001 87.08099999999989 85.43700000000001 87.07799999999989 85.43700000000001 C 87.05999999999989 85.44300000000001 87.03699999999989 85.44300000000001 87.01599999999989 85.45100000000001 L 87.01599999999989 85.42 C 86.969 85.41 86.926 85.398 86.879 85.389 C 83.913 84.73 81.054 84.046 78.249 83.35 C 77.484 83.161 76.725 82.971 75.974 82.779 C 73.298 82.095 70.673 81.401 68.145 80.69 C 67.966 80.639 67.786 80.589 67.607 80.54 C 65.063 79.817 62.619 79.079 60.223 78.333 C 59.524 78.116 58.83 77.897 58.143 77.678 C 55.89 76.959 53.685 76.232 51.564 75.497 C 51.316 75.41 51.064 75.325 50.817 75.239 C 48.671 74.486 46.61 73.727 44.597 72.964 C 43.959 72.723 43.329 72.482 42.708 72.239 C 40.849 71.518 39.036 70.795 37.293 70.068 C 36.982 69.939 36.668 69.81 36.36 69.681 C 34.587 68.933 32.89 68.185 31.234 67.438 C 30.668 67.183 30.108 66.926 29.555 66.67 C 28.04 65.972 26.566 65.273 25.154 64.578 C 24.826 64.417 24.497 64.257 24.175 64.096 C 22.725 63.374 21.341 62.658 19.998 61.945 C 19.513 61.688 19.034 61.432 18.563 61.176 C 17.342 60.515 16.158 59.859 15.028 59.211 C 14.729 59.041 14.428 58.869 14.134 58.699 C 12.96 58.018 11.844 57.346 10.77 56.685 C 10.375 56.443 9.988 56.203 9.608 55.965 C 8.626 55.349 7.679 54.741 6.782 54.147 C 6.564 54.004 6.342 53.859 6.13 53.718 C 5.176 53.08 4.282 52.46 3.427 51.855 C 3.132 51.646 2.842 51.44 2.559 51.236 C 1.777 50.674 1.028 50.123 0.33 49.594 C 0.216 49.509 0.094 49.417 -0.017 49.334 C -0.783 48.748 -1.484 48.192 -2.15 47.654 C -2.344 47.498 -2.532 47.345 -2.717 47.193 C -3.333 46.688 -3.921 46.196 -4.444 45.744 C -4.474 45.718 -4.508 45.69 -4.537 45.664 C -4.875 45.372 -5.181 45.099 -5.479 44.83 C -5.55 44.767 -5.631 44.697 -5.699 44.635 C -8.243 42.335 -9.386 40.967 -9.386 40.967 C -8.426 30.405 -6.419 20.474 -3.679 11.113 C -2.569 7.314 -1.346 3.6 0 0" stroke-linecap="round" />
</g>
</g>
</g>
<g transform="matrix(1.9211538461538462 0 0 1.9211538461538462 643.1199538461541 681.7954325946706)" id="text-logo"  >
<g style=""  paint-order="stroke"   >
		<g transform="matrix(1 0 0 1 0 0)" id="text-logo-path-0"  >
<path style="stroke: none; stroke-width: 0; stroke-dasharray: none; stroke-linecap: butt; stroke-dashoffset: 0; stroke-linejoin: miter; stroke-miterlimit: 4; fill: rgb(54,196,212); fill-rule: nonzero; opacity: 1;"  paint-order="stroke"  transform=" translate(-191.865, 20.3)" d="M 13.63 -40.6 L 3.77 -40.6 L 3.77 0 L 13.05 0 L 13.05 -19.43 L 21.75 0 L 32.19 0 L 40.89 -19.43 L 40.89 0 L 50.17 0 L 50.17 -40.6 L 40.31 -40.6 L 26.97 -10.38 Z M 88.1 -40.6 L 58.93 -40.6 L 58.93 0 L 88.1 0 L 88.1 -8.7 L 68.21 -8.7 L 68.21 -16.82 L 84.62 -16.82 L 84.62 -25.52 L 68.21 -25.52 L 68.21 -31.9 L 88.1 -31.9 Z M 109.56 -40.6 L 95.47 -40.6 L 95.47 0 L 109.56 0 C 122.09 0 130.79 -7.83 130.79 -20.3 C 130.79 -32.77 122.09 -40.6 109.56 -40.6 Z M 104.75 -31.9 L 109.56 -31.9 C 116.58 -31.9 121.51 -27.61 121.51 -20.24 C 121.51 -12.88 116.58 -8.7 109.56 -8.7 L 104.75 -8.7 Z M 147.03 -40.6 L 137.75 -40.6 L 137.75 0 L 147.03 0 Z M 195.34 -31.9 L 207.52 -31.9 L 207.52 -40.6 L 173.88 -40.6 L 173.88 -31.9 L 186.06 -31.9 L 186.06 0 L 195.34 0 Z M 222.49 -40.6 L 213.21 -40.6 L 213.21 0 L 222.49 0 Z M 250.68 0.93 C 257.46 0.93 263.15 -1.62 266.92 -6.03 L 259.96 -12.06 C 257.81 -9.34 254.56 -7.77 250.68 -7.77 C 243.66 -7.77 238.73 -12.93 238.73 -20.3 C 238.73 -27.61 243.66 -32.83 250.68 -32.83 C 254.04 -32.83 256.94 -31.61 259.09 -29.58 L 265.18 -36.37 C 261.46 -39.67 256.48 -41.53 250.68 -41.53 C 238.21 -41.53 229.45 -32.89 229.45 -20.36 C 229.45 -7.89 238.21 0.93 250.68 0.93 Z M 282.05 -40.6 L 272.77 -40.6 L 272.77 0 L 282.05 0 L 282.05 -10.5 L 285.07 -14.27 L 295.97 0 L 307.57 0 L 290.64 -21.4 L 305.83 -40.6 L 294.81 -40.6 L 282.05 -23.49 Z M 341.97 -40.6 L 312.79 -40.6 L 312.79 0 L 341.97 0 L 341.97 -8.7 L 322.07 -8.7 L 322.07 -16.82 L 338.49 -16.82 L 338.49 -25.52 L 322.07 -25.52 L 322.07 -31.9 L 341.97 -31.9 Z M 367.78 -31.9 L 379.96 -31.9 L 379.96 -40.6 L 346.32 -40.6 L 346.32 -31.9 L 358.5 -31.9 L 358.5 0 L 367.78 0 Z" stroke-linecap="round" />
</g>
</g>
</g>
<g transform="matrix(1.9211538461538462 0 0 1.9211538461538462 640 765.6841522100553)" id="tagline-ae924f57-93d7-4410-b2fc-303e47bded8d-logo"  >
<g style=""  paint-order="stroke"   >
		<g transform="matrix(1 0 0 1 0 0)" id="tagline-ae924f57-93d7-4410-b2fc-303e47bded8d-logo-path-0"  >
<path style="stroke: none; stroke-width: 0; stroke-dasharray: none; stroke-linecap: butt; stroke-dashoffset: 0; stroke-linejoin: miter; stroke-miterlimit: 4; fill: rgb(48,192,210); fill-rule: nonzero; opacity: 1;"  paint-order="stroke"  transform=" translate(-129.61, 9.8)" d="M 1.29 -2.6 C 2.41 -1.01 4.37 0 6.58 0 C 10 0 12.85 -2.55 12.85 -5.77 C 12.85 -9.58 9.88 -10.64 7.67 -11.48 C 5.52 -12.26 3.5 -12.85 3.5 -14.73 C 3.5 -16.3 4.96 -17.64 6.89 -17.64 C 8.15 -17.64 9.21 -17.08 9.83 -16.24 C 10 -15.99 10.28 -15.82 10.61 -15.82 C 11.14 -15.82 11.59 -16.27 11.59 -16.8 C 11.59 -17.02 11.51 -17.22 11.4 -17.36 C 10.44 -18.7 8.76 -19.6 6.89 -19.6 C 3.95 -19.6 1.54 -17.42 1.54 -14.73 C 1.54 -11.37 4.84 -10.42 7 -9.63 C 9.21 -8.79 10.89 -8.18 10.89 -5.77 C 10.89 -3.67 8.99 -1.96 6.58 -1.96 C 4.98 -1.96 3.64 -2.69 2.91 -3.72 C 2.74 -3.95 2.44 -4.14 2.1 -4.14 C 1.57 -4.14 1.12 -3.7 1.12 -3.16 C 1.12 -2.97 1.18 -2.77 1.29 -2.6 Z M 29.29 -17.64 L 30.94 -17.64 L 30.94 -1.96 L 29.29 -1.96 C 28.73 -1.96 28.31 -1.51 28.31 -0.98 C 28.28 -0.42 28.73 0 29.29 0 L 34.55 0 C 35.08 0 35.53 -0.45 35.53 -0.98 C 35.5 -1.54 35.08 -1.96 34.55 -1.96 L 32.9 -1.96 L 32.9 -17.64 L 34.55 -17.64 C 35.08 -17.64 35.53 -18.09 35.53 -18.62 C 35.5 -19.18 35.08 -19.6 34.55 -19.6 L 29.29 -19.6 C 28.73 -19.6 28.31 -19.15 28.31 -18.62 C 28.28 -18.06 28.73 -17.64 29.29 -17.64 Z M 52.95 -0.9 L 52.89 -16.02 L 64.48 -0.48 C 65.21 0.45 66.67 -0.06 66.67 -1.2 L 66.67 -18.73 C 66.67 -19.26 66.22 -19.71 65.69 -19.71 C 65.13 -19.68 64.71 -19.26 64.71 -18.73 L 64.71 -3.44 L 52.98 -19.18 C 52.3 -20.08 50.93 -19.52 50.93 -18.42 L 50.99 -0.87 C 50.99 -0.36 51.44 0.11 51.97 0.11 C 52.47 0.11 52.95 -0.36 52.95 -0.9 Z M 96.96 -3.78 C 95.62 -2.63 93.86 -1.96 91.95 -1.96 C 87.56 -1.96 84.08 -5.43 84.08 -9.83 C 84.08 -14.17 87.56 -17.64 91.95 -17.64 C 93.46 -17.64 94.86 -17.22 96.1 -16.46 C 96.26 -16.35 96.4 -16.32 96.6 -16.32 C 97.13 -16.32 97.58 -16.74 97.58 -17.3 C 97.58 -17.64 97.38 -17.98 97.1 -18.14 C 95.59 -19.07 93.83 -19.6 91.95 -19.6 C 86.49 -19.6 82.12 -15.23 82.12 -9.83 C 82.12 -4.37 86.49 0 91.95 0 C 94.33 0 96.52 -0.84 98.25 -2.3 C 98.45 -2.46 98.59 -2.74 98.59 -3.05 C 98.59 -3.56 98.14 -4 97.61 -4 C 97.38 -4 97.16 -3.95 96.96 -3.78 Z M 125.66 -1.96 L 116 -1.96 L 116 -8.82 L 123.7 -8.82 C 124.24 -8.82 124.68 -9.27 124.68 -9.8 C 124.66 -10.36 124.24 -10.78 123.7 -10.78 L 116 -10.78 L 116 -17.64 L 125.66 -17.64 C 126.2 -17.64 126.64 -18.09 126.64 -18.62 C 126.62 -19.18 126.2 -19.6 125.66 -19.6 L 115.16 -19.6 C 114.55 -19.6 114.04 -19.1 114.04 -18.48 L 114.04 -1.12 C 114.04 -0.5 114.55 0 115.16 0 L 125.66 0 C 126.2 0 126.64 -0.45 126.64 -0.98 C 126.62 -1.54 126.2 -1.96 125.66 -1.96 Z M 161.9 0 L 172.17 0 C 172.7 0 173.15 -0.45 173.15 -0.98 C 173.15 -1.51 172.7 -1.96 172.17 -1.96 L 164.22 -1.96 L 167.5 -5.38 C 170.38 -8.34 173.07 -10.22 173.07 -13.52 C 173.07 -16.91 170.38 -19.6 166.99 -19.6 C 164.92 -19.6 163.07 -18.54 161.98 -16.94 C 161.87 -16.77 161.81 -16.6 161.81 -16.38 C 161.81 -15.85 162.26 -15.43 162.79 -15.43 C 163.13 -15.43 163.44 -15.6 163.6 -15.85 C 164.33 -17 165.51 -17.64 166.99 -17.64 C 169.46 -17.64 171.11 -15.99 171.11 -13.52 C 171.11 -11.23 169.12 -9.86 166.1 -6.72 L 161.28 -1.76 C 161.06 -1.57 160.92 -1.29 160.92 -0.98 C 160.92 -0.45 161.34 0 161.9 0 Z M 195.64 -1.96 C 192.5 -1.96 190.57 -4.87 190.57 -9.83 C 190.57 -14.81 192.61 -17.64 195.64 -17.64 C 198.72 -17.64 200.68 -14.67 200.68 -9.83 C 200.68 -4.82 198.63 -1.96 195.64 -1.96 Z M 195.64 0 C 199.86 0 202.64 -3.84 202.64 -9.83 C 202.64 -15.57 200.03 -19.6 195.64 -19.6 C 191.41 -19.6 188.61 -15.82 188.61 -9.83 C 188.61 -4 191.18 0 195.64 0 Z M 219.07 0 L 229.35 0 C 229.88 0 230.33 -0.45 230.33 -0.98 C 230.33 -1.51 229.88 -1.96 229.35 -1.96 L 221.4 -1.96 L 224.67 -5.38 C 227.56 -8.34 230.24 -10.22 230.24 -13.52 C 230.24 -16.91 227.56 -19.6 224.17 -19.6 C 222.1 -19.6 220.25 -18.54 219.16 -16.94 C 219.04 -16.77 218.99 -16.6 218.99 -16.38 C 218.99 -15.85 219.44 -15.43 219.97 -15.43 C 220.3 -15.43 220.61 -15.6 220.78 -15.85 C 221.51 -17 222.68 -17.64 224.17 -17.64 C 226.63 -17.64 228.28 -15.99 228.28 -13.52 C 228.28 -11.23 226.3 -9.86 223.27 -6.72 L 218.46 -1.76 C 218.23 -1.57 218.09 -1.29 218.09 -0.98 C 218.09 -0.45 218.51 0 219.07 0 Z M 251.97 -1.96 C 249.59 -1.96 247.74 -3.81 247.74 -6.19 C 247.74 -8.51 249.59 -10.36 251.97 -10.36 C 254.27 -10.36 256.14 -8.51 256.14 -6.19 C 256.14 -3.81 254.27 -1.96 251.97 -1.96 Z M 251.97 0 C 255.33 0 258.1 -2.74 258.1 -6.19 C 258.1 -9.58 255.33 -12.32 251.97 -12.32 C 251.61 -12.32 251.27 -12.29 250.94 -12.24 L 254.94 -18.06 C 255.05 -18.23 255.11 -18.42 255.11 -18.62 C 255.11 -19.15 254.66 -19.6 254.13 -19.6 C 253.82 -19.6 253.51 -19.43 253.34 -19.18 L 246.93 -9.86 C 246.37 -9.02 246.01 -8.09 245.87 -7.22 L 245.87 -7.17 C 245.81 -6.86 245.78 -6.52 245.78 -6.19 C 245.78 -2.74 248.53 0 251.97 0 Z" stroke-linecap="round" />
</g>
</g>
</g>
<g transform="matrix(1.9211538461538462 0 0 1.9211538461538462 639.6013605769231 337.5628368618835)" id="tagline-f0298f46-1fe8-4964-8245-bcc33c1b1639-logo"  >
<g style=""  paint-order="stroke"   >
		<g transform="matrix(1 0 0 1 0 0)" id="tagline-f0298f46-1fe8-4964-8245-bcc33c1b1639-logo-path-0"  >
<filter id="SVGID_504636" y="-20%" height="140%" x="-32.795436825449386%" width="165.59087365089877%" >
	<feGaussianBlur in="SourceAlpha" stdDeviation="0"></feGaussianBlur>
	<feOffset dx="5.734914785166414" dy="0" result="oBlur" ></feOffset>
	<feFlood flood-color="rgb(48,162,174)" flood-opacity="1"/>
	<feComposite in2="oBlur" operator="in" />
	<feMerge>
		<feMergeNode></feMergeNode>
		<feMergeNode in="SourceGraphic"></feMergeNode>
	</feMerge>
</filter>
<path style="stroke: none; stroke-width: 0; stroke-dasharray: none; stroke-linecap: butt; stroke-dashoffset: 0; stroke-linejoin: miter; stroke-miterlimit: 4; fill: rgb(255,255,255); fill-rule: nonzero; opacity: 1;filter: url(#SVGID_504636);"  paint-order="stroke"  transform=" translate(-25.73, 29.05)" d="M 3.32 -58.1 L 3.32 0 L 12.45 0 L 12.45 -34.36 L 23.24 0 L 28.22 0 L 39.01 -37.77 L 39.01 0 L 48.14 0 L 48.14 -58.1 L 35.69 -58.1 L 25.4 -22.08 L 14.11 -58.1 Z" stroke-linecap="round" />
</g>
</g>
</g>
</svg>